<svg width="40" height="40" viewBox="0 0 40 40" fill="none" xmlns="http://www.w3.org/2000/svg">
<path opacity="0.5" d="M16.2973 35H23.704C28.9057 35 31.5073 35 33.3757 33.775C34.182 33.2469 34.8764 32.565 35.419 31.7683C36.6673 29.935 36.6673 27.38 36.6673 22.2733C36.6673 17.1666 36.6673 14.6116 35.419 12.7783C34.8764 11.9816 34.182 11.2997 33.3757 10.7716C32.1756 9.98329 30.6723 9.70162 28.3706 9.60162C27.2723 9.60162 26.3273 8.78496 26.1123 7.72662C25.948 6.9514 25.5211 6.25668 24.9037 5.75987C24.2864 5.26306 23.5164 4.99464 22.724 4.99996H17.2773C15.6307 4.99996 14.2123 6.14162 13.889 7.72662C13.674 8.78496 12.729 9.60162 11.6307 9.60162C9.33065 9.70162 7.82732 9.98495 6.62565 10.7716C5.81988 11.2999 5.12611 11.9818 4.58398 12.7783C3.33398 14.6116 3.33398 17.165 3.33398 22.2733C3.33398 27.3816 3.33398 29.9333 4.58232 31.7683C5.12232 32.5616 5.81565 33.2433 6.62565 33.775C8.49398 35 11.0957 35 16.2973 35Z" fill="#174EA6"/>
<path d="M29.2594 15.4533C29.0786 15.4518 28.8993 15.4859 28.7317 15.5536C28.5641 15.6214 28.4115 15.7215 28.2825 15.8483C28.1536 15.975 28.0509 16.1259 27.9803 16.2924C27.9097 16.4588 27.8726 16.6375 27.8711 16.8183C27.8711 17.5716 28.4928 18.1816 29.2594 18.1816H31.1111C31.8778 18.1816 32.5011 17.57 32.5011 16.8183C32.4996 16.6374 32.4624 16.4585 32.3917 16.292C32.321 16.1254 32.2182 15.9744 32.0891 15.8477C31.96 15.7209 31.8071 15.6208 31.6393 15.5531C31.4715 15.4855 31.292 15.4516 31.1111 15.4533H29.2594Z" fill="#174EA6"/>
<path fill-rule="evenodd" clip-rule="evenodd" d="M20 15.4534C16.1666 15.4534 13.0566 18.5067 13.0566 22.2717C13.0566 26.0367 16.165 29.09 20.0016 29.09C23.835 29.09 26.945 26.0384 26.945 22.2734C26.945 18.5084 23.8366 15.4534 20.0016 15.4534M20.0016 18.1817C17.7016 18.1817 15.835 20.0134 15.835 22.2717C15.835 24.53 17.7016 26.3634 20.0016 26.3634C22.3033 26.3634 24.1683 24.5317 24.1683 22.2717C24.1683 20.0134 22.3033 18.1817 20.0016 18.1817Z" fill="#174EA6"/>
</svg>
