<svg width="21" height="21" viewBox="0 0 21 21" fill="none" xmlns="http://www.w3.org/2000/svg">
<path d="M10.7227 15.8682C10.0596 15.8682 9.42373 15.6675 8.95489 15.3103C8.48605 14.9531 8.22266 14.4686 8.22266 13.9635C8.22266 12.9063 9.33516 12.0587 10.7227 12.0587C11.3857 12.0587 12.0216 12.2594 12.4904 12.6166C12.9593 12.9738 13.2227 13.4583 13.2227 13.9635C13.2227 14.4686 12.9593 14.9531 12.4904 15.3103C12.0216 15.6675 11.3857 15.8682 10.7227 15.8682ZM18.2227 18.7254V9.20156H3.22266V18.7254H18.2227ZM18.2227 7.29679C18.8857 7.29679 19.5216 7.49747 19.9904 7.85469C20.4593 8.2119 20.7227 8.69638 20.7227 9.20156V18.7254C20.7227 19.2305 20.4593 19.715 19.9904 20.0722C19.5216 20.4294 18.8857 20.6301 18.2227 20.6301H3.22266C2.55962 20.6301 1.92373 20.4294 1.45489 20.0722C0.986048 19.715 0.722656 19.2305 0.722656 18.7254V9.20156C0.722656 8.14441 1.83516 7.29679 3.22266 7.29679H4.47266V5.39203C4.47266 4.1291 5.13114 2.91789 6.30324 2.02486C7.47534 1.13183 9.06505 0.630127 10.7227 0.630127C11.5434 0.630127 12.3561 0.753297 13.1144 0.992605C13.8727 1.23191 14.5617 1.58267 15.1421 2.02486C15.7224 2.46704 16.1828 2.99199 16.4969 3.56973C16.811 4.14747 16.9727 4.76669 16.9727 5.39203V7.29679H18.2227ZM10.7227 2.53489C9.72809 2.53489 8.77427 2.83591 8.071 3.37173C7.36774 3.90755 6.97266 4.63427 6.97266 5.39203V7.29679H14.4727V5.39203C14.4727 4.63427 14.0776 3.90755 13.3743 3.37173C12.671 2.83591 11.7172 2.53489 10.7227 2.53489Z" fill="#174EA6"/>
</svg>
