<svg width="21" height="21" viewBox="0 0 21 21" fill="none" xmlns="http://www.w3.org/2000/svg">
<path d="M8.19231 9.96538H6.65385V8.66989H8.19231V9.96538ZM14.3462 9.96538H12.8077V8.66989H14.3462V9.96538ZM20.5 8.66989V11.2609H18.9615V14.4996C18.9615 14.7695 18.9014 15.0225 18.7812 15.2587C18.6611 15.4948 18.4968 15.7006 18.2885 15.8761C18.0801 16.0515 17.8357 16.1898 17.5553 16.291C17.2748 16.3922 16.9744 16.4428 16.6538 16.4428H13.4808L8.19231 20.2484V16.4428H4.34615C4.02564 16.4428 3.72516 16.3922 3.44471 16.291C3.16426 16.1898 2.91987 16.0515 2.71154 15.8761C2.50321 15.7006 2.33894 15.4948 2.21875 15.2587C2.09856 15.0225 2.03846 14.7695 2.03846 14.4996V11.2609H0.5V8.66989H2.03846V6.72666C2.03846 6.45676 2.09856 6.20373 2.21875 5.96758C2.33894 5.73142 2.50321 5.52563 2.71154 5.35019C2.91987 5.17476 3.16426 5.03644 3.44471 4.93523C3.72516 4.83402 4.02564 4.78342 4.34615 4.78342H9.73077V2.66812C9.4984 2.55342 9.3141 2.39485 9.17789 2.19243C9.04167 1.99001 8.96955 1.7741 8.96154 1.54469C8.96154 1.36251 9.0016 1.19383 9.08173 1.03864C9.16186 0.883447 9.27003 0.7485 9.40625 0.633795C9.54247 0.51909 9.70673 0.424627 9.89904 0.350406C10.0913 0.276185 10.2917 0.242448 10.5 0.249195C10.7163 0.249195 10.9167 0.282932 11.101 0.350406C11.2853 0.417879 11.4455 0.508969 11.5817 0.623674C11.7179 0.738379 11.8301 0.876699 11.9183 1.03864C12.0064 1.20057 12.0465 1.36926 12.0385 1.54469C12.0385 1.7741 11.9704 1.99001 11.8341 2.19243C11.6979 2.39485 11.5096 2.55342 11.2692 2.66812V4.78342H16.6538C16.9744 4.78342 17.2748 4.83402 17.5553 4.93523C17.8357 5.03644 18.0801 5.17476 18.2885 5.35019C18.4968 5.52563 18.6611 5.73142 18.7812 5.96758C18.9014 6.20373 18.9615 6.45676 18.9615 6.72666V8.66989H20.5ZM17.4231 6.72666C17.4231 6.55122 17.347 6.39941 17.1947 6.27121C17.0425 6.14301 16.8622 6.07891 16.6538 6.07891H4.34615C4.13782 6.07891 3.95753 6.14301 3.80529 6.27121C3.65304 6.39941 3.57692 6.55122 3.57692 6.72666V14.4996C3.57692 14.675 3.65304 14.8269 3.80529 14.9551C3.95753 15.0833 4.13782 15.1474 4.34615 15.1474H9.73077V17.4347L12.9038 15.1474H16.6538C16.8622 15.1474 17.0425 15.0833 17.1947 14.9551C17.347 14.8269 17.4231 14.675 17.4231 14.4996V6.72666ZM7.19471 11.4026C7.63542 11.7737 8.14022 12.0571 8.70914 12.2527C9.27805 12.4484 9.875 12.5496 10.5 12.5564C11.125 12.5564 11.722 12.4585 12.2909 12.2629C12.8598 12.0672 13.3646 11.7804 13.8053 11.4026L14.887 12.3236C14.3021 12.8161 13.633 13.194 12.8798 13.4571C12.1266 13.7203 11.3333 13.8519 10.5 13.8519C9.67468 13.8519 8.88542 13.7203 8.13221 13.4571C7.37901 13.194 6.70593 12.8161 6.11298 12.3236L7.19471 11.4026Z" fill="#174EA6"/>
</svg>
