<svg width="124" height="121" viewBox="0 0 124 121" fill="none" xmlns="http://www.w3.org/2000/svg">
<path d="M70.1043 80.9564C68.9641 82.08 67.6101 82.9714 66.1198 83.5796C64.6294 84.1877 63.0319 84.5008 61.4185 84.5008C59.8052 84.5008 58.2076 84.1877 56.7173 83.5796C55.2269 82.9714 53.8729 82.08 52.7327 80.9564L28.1793 56.7864C27.0379 55.664 26.1324 54.3311 25.5146 52.864C24.8967 51.3969 24.5788 49.8244 24.5788 48.2362C24.5788 46.6481 24.8967 45.0755 25.5146 43.6084C26.1324 42.1413 27.0379 40.8084 28.1793 39.6861C30.4795 37.4352 33.5911 36.1718 36.8344 36.1718C40.0777 36.1718 43.1893 37.4352 45.4895 39.6861L61.4492 55.3362L102.146 15.2743C92.0481 6.45272 79.2769 1.15457 65.8103 0.200317C52.3438 -0.753938 38.9334 2.68893 27.6556 9.99581C16.3778 17.3027 7.86184 28.0659 3.42643 40.6188C-1.00899 53.1717 -1.11641 66.8139 3.12079 79.433C7.358 92.052 15.7034 102.944 26.8648 110.422C38.0262 117.9 51.3808 121.547 64.8607 120.799C78.3406 120.05 91.1938 114.947 101.43 106.281C111.666 97.6144 118.714 85.8676 121.482 72.8594C124.27 60.0497 122.695 46.6929 117.001 34.8521L70.1043 80.9564Z" fill="#174EA6"/>
<path d="M61.405 77.2874C60.5824 77.2919 59.7668 77.1437 59.0053 76.8515C58.2437 76.5592 57.551 76.1286 56.9669 75.5843L31.9633 52.0924C30.7863 50.9865 30.125 49.4866 30.125 47.9226C30.125 46.3587 30.7863 44.8587 31.9633 43.7528C33.1404 42.6469 34.7368 42.0257 36.4015 42.0257C38.0661 42.0257 39.6625 42.6469 40.8396 43.7528L61.405 63.1336L113.225 14.3881C114.402 13.2822 115.998 12.6609 117.663 12.6609C119.328 12.6609 120.924 13.2822 122.101 14.3881C123.278 15.494 123.939 16.9939 123.939 18.5579C123.939 20.1219 123.278 21.6218 122.101 22.7277L65.8431 75.5843C65.2591 76.1286 64.5664 76.5592 63.8048 76.8515C63.0432 77.1437 62.2277 77.2919 61.405 77.2874Z" fill="#D4AF37"/>
</svg>
