<svg width="24" height="25" viewBox="0 0 24 25" fill="none" xmlns="http://www.w3.org/2000/svg">
<path d="M3.99998 0.5H6.99998C9.20911 0.5 11 2.29086 11 4.49998V7.49998C11 9.70911 9.20911 11.5 6.99998 11.5H3.99998C1.79086 11.5 0 9.70916 0 7.49998V4.49998C0 2.29086 1.79086 0.5 3.99998 0.5Z" fill="#174EA6"/>
<path d="M17 0.5H20C22.2091 0.5 24 2.29086 24 4.49998V7.49998C24 9.70911 22.2091 11.5 20 11.5H17C14.7909 11.5 13 9.70911 13 7.49998V4.49998C13 2.29086 14.7908 0.5 17 0.5Z" fill="#174EA6"/>
<path d="M3.99998 13.5H6.99998C9.20911 13.5 11 15.2909 11 17.5V20.5C11 22.7091 9.20911 24.5 6.99998 24.5H3.99998C1.79086 24.5 0 22.7092 0 20.5V17.5C0 15.2909 1.79086 13.5 3.99998 13.5Z" fill="#174EA6"/>
<path d="M17 13.5H20C22.2091 13.5 24 15.2909 24 17.5V20.5C24 22.7092 22.2091 24.5 20 24.5H17C14.7909 24.5 13 22.7092 13 20.5V17.5C13 15.2909 14.7908 13.5 17 13.5Z" fill="#174EA6"/>
</svg>
