<svg width="20" height="21" viewBox="0 0 20 21" fill="none" xmlns="http://www.w3.org/2000/svg">
<path d="M1.96484 7.18853L7.78151 11.0669C8.58401 11.601 8.98484 11.8685 9.41818 11.9727C9.80151 12.0644 10.2007 12.0644 10.5832 11.9727C11.0165 11.8685 11.4173 11.601 12.2198 11.0669L18.0365 7.18853M5.96484 17.0102H14.0365C15.4365 17.0102 16.1365 17.0102 16.6715 16.7377C17.1416 16.4979 17.5237 16.1154 17.7632 15.6452C18.0365 15.1102 18.0365 14.4102 18.0365 13.0102V8.51019C18.0365 7.11019 18.0365 6.41019 17.764 5.87519C17.5243 5.40481 17.1419 5.02237 16.6715 4.78269C16.1365 4.51019 15.4365 4.51019 14.0365 4.51019H5.96484C4.56484 4.51019 3.86484 4.51019 3.32984 4.78269C2.85977 5.02251 2.47764 5.40494 2.23818 5.87519C1.96484 6.41019 1.96484 7.11019 1.96484 8.51019V13.0102C1.96484 14.4102 1.96484 15.1102 2.23734 15.6452C2.47702 16.1156 2.85946 16.498 3.32984 16.7377C3.86484 17.0102 4.56484 17.0102 5.96484 17.0102Z" stroke="#174EA6" stroke-width="1.5" stroke-linecap="round" stroke-linejoin="round"/>
</svg>
