<svg width="20" height="20" viewBox="0 0 20 20" fill="none" xmlns="http://www.w3.org/2000/svg">
<path d="M9.99935 1.66669C14.6018 1.66669 18.3327 5.39752 18.3327 10C18.3327 14.6025 14.6018 18.3334 9.99935 18.3334C5.39685 18.3334 1.66602 14.6025 1.66602 10C1.66602 5.39752 5.39685 1.66669 9.99935 1.66669ZM9.99935 3.33335C8.23124 3.33335 6.53555 4.03573 5.2853 5.28598C4.03506 6.53622 3.33268 8.23191 3.33268 10C3.33268 11.7681 4.03506 13.4638 5.2853 14.7141C6.53555 15.9643 8.23124 16.6667 9.99935 16.6667C11.7675 16.6667 13.4632 15.9643 14.7134 14.7141C15.9636 13.4638 16.666 11.7681 16.666 10C16.666 8.23191 15.9636 6.53622 14.7134 5.28598C13.4632 4.03573 11.7675 3.33335 9.99935 3.33335ZM9.99935 13.3334C10.2204 13.3334 10.4323 13.4212 10.5886 13.5774C10.7449 13.7337 10.8327 13.9457 10.8327 14.1667C10.8327 14.3877 10.7449 14.5997 10.5886 14.7559C10.4323 14.9122 10.2204 15 9.99935 15C9.77833 15 9.56637 14.9122 9.41009 14.7559C9.25381 14.5997 9.16602 14.3877 9.16602 14.1667C9.16602 13.9457 9.25381 13.7337 9.41009 13.5774C9.56637 13.4212 9.77833 13.3334 9.99935 13.3334ZM9.99935 5.41669C10.7012 5.41671 11.3812 5.66115 11.9225 6.10802C12.4638 6.55489 12.8325 7.1763 12.9654 7.8655C13.0983 8.5547 12.9871 9.26868 12.6508 9.88478C12.3146 10.5009 11.7742 10.9807 11.1227 11.2417C11.0262 11.2772 10.9392 11.3345 10.8685 11.4092C10.8318 11.4509 10.826 11.5042 10.8268 11.5592L10.8327 11.6667C10.8324 11.8791 10.7511 12.0834 10.6053 12.2378C10.4595 12.3923 10.2602 12.4852 10.0482 12.4977C9.83615 12.5101 9.62737 12.4411 9.46449 12.3048C9.30161 12.1685 9.19694 11.9751 9.17185 11.7642L9.16602 11.6667V11.4584C9.16602 10.4975 9.94102 9.92085 10.5027 9.69502C10.7313 9.60374 10.9307 9.45191 11.0795 9.25584C11.2283 9.05977 11.3209 8.82687 11.3473 8.58215C11.3738 8.33743 11.3331 8.09013 11.2295 7.8668C11.126 7.64348 10.9636 7.45257 10.7598 7.31458C10.556 7.17659 10.3184 7.09673 10.0726 7.08358C9.82681 7.07042 9.58207 7.12447 9.36468 7.23991C9.14728 7.35536 8.96544 7.52784 8.83868 7.73884C8.71192 7.94983 8.64502 8.19137 8.64518 8.43752C8.64518 8.65853 8.55738 8.8705 8.4011 9.02678C8.24482 9.18306 8.03286 9.27085 7.81185 9.27085C7.59084 9.27085 7.37887 9.18306 7.22259 9.02678C7.06631 8.8705 6.97852 8.65853 6.97852 8.43752C6.97852 7.63635 7.29678 6.86798 7.8633 6.30147C8.42981 5.73495 9.19817 5.41669 9.99935 5.41669Z" fill="#174EA6"/>
</svg>
