<svg width="29" height="29" viewBox="0 0 29 29" fill="none" xmlns="http://www.w3.org/2000/svg">
<path d="M9.83268 6.29053H7.49935C6.88051 6.29053 6.28702 6.53636 5.84943 6.97394C5.41185 7.41153 5.16602 8.00502 5.16602 8.62386V22.6239C5.16602 23.2427 5.41185 23.8362 5.84943 24.2738C6.28702 24.7114 6.88051 24.9572 7.49935 24.9572H14.1458M21.4993 16.7905V21.4572H26.166M21.4993 13.2905V8.62386C21.4993 8.00502 21.2535 7.41153 20.8159 6.97394C20.3783 6.53636 19.7849 6.29053 19.166 6.29053H16.8327" stroke="#174EA6" stroke-width="2" stroke-linecap="round" stroke-linejoin="round"/>
<path d="M9.83203 13.2904H14.4987M9.83203 17.957H13.332M9.83203 6.29036C9.83203 5.67153 10.0779 5.07803 10.5154 4.64045C10.953 4.20286 11.5465 3.95703 12.1654 3.95703H14.4987C15.1175 3.95703 15.711 4.20286 16.1486 4.64045C16.5862 5.07803 16.832 5.67153 16.832 6.29036C16.832 6.9092 16.5862 7.5027 16.1486 7.94028C15.711 8.37787 15.1175 8.6237 14.4987 8.6237H12.1654C11.5465 8.6237 10.953 8.37787 10.5154 7.94028C10.0779 7.5027 9.83203 6.9092 9.83203 6.29036ZM16.832 21.457C16.832 22.6947 17.3237 23.8817 18.1989 24.7569C19.074 25.632 20.261 26.1237 21.4987 26.1237C22.7364 26.1237 23.9234 25.632 24.7985 24.7569C25.6737 23.8817 26.1654 22.6947 26.1654 21.457C26.1654 20.2194 25.6737 19.0324 24.7985 18.1572C23.9234 17.282 22.7364 16.7904 21.4987 16.7904C20.261 16.7904 19.074 17.282 18.1989 18.1572C17.3237 19.0324 16.832 20.2194 16.832 21.457Z" stroke="#174EA6" stroke-width="2" stroke-linecap="round" stroke-linejoin="round"/>
</svg>
