<svg width="25" height="25" viewBox="0 0 25 25" fill="none" xmlns="http://www.w3.org/2000/svg">
<g clip-path="url(#clip0_2617_790)">
<path d="M14.3867 14.6445C13.6992 14.0586 12.9375 13.6094 12.1016 13.2969C11.2656 12.9844 10.3984 12.8281 9.5 12.8281C8.8125 12.8281 8.14844 12.918 7.50781 13.0977C6.86719 13.2773 6.26953 13.5273 5.71484 13.8477C5.16016 14.168 4.65625 14.5586 4.20312 15.0195C3.75 15.4805 3.35938 15.9883 3.03125 16.543C2.70312 17.0977 2.44922 17.6953 2.26953 18.3359C2.08984 18.9766 2 19.6406 2 20.3281H0.5C0.5 19.3906 0.636719 18.4883 0.910156 17.6211C1.18359 16.7539 1.57812 15.9531 2.09375 15.2188C2.60938 14.4844 3.21875 13.832 3.92188 13.2617C4.625 12.6914 5.42188 12.2422 6.3125 11.9141C5.42969 11.3359 4.74219 10.6094 4.25 9.73438C3.75781 8.85938 3.50781 7.89062 3.5 6.82812C3.5 6 3.65625 5.22266 3.96875 4.49609C4.28125 3.76953 4.70703 3.13281 5.24609 2.58594C5.78516 2.03906 6.42188 1.60938 7.15625 1.29688C7.89062 0.984375 8.67188 0.828125 9.5 0.828125C10.3281 0.828125 11.1055 0.984375 11.832 1.29688C12.5586 1.60938 13.1953 2.03516 13.7422 2.57422C14.2891 3.11328 14.7188 3.75 15.0312 4.48438C15.3438 5.21875 15.5 6 15.5 6.82812C15.5 7.34375 15.4375 7.84766 15.3125 8.33984C15.1875 8.83203 15 9.29688 14.75 9.73438C14.5 10.1719 14.207 10.5742 13.8711 10.9414C13.5352 11.3086 13.1406 11.6328 12.6875 11.9141C13.1953 12.1094 13.6797 12.3477 14.1406 12.6289C14.6016 12.9102 15.0352 13.2266 15.4414 13.5781L14.3867 14.6445ZM5 6.82812C5 7.45312 5.11719 8.03516 5.35156 8.57422C5.58594 9.11328 5.90625 9.58984 6.3125 10.0039C6.71875 10.418 7.19531 10.7422 7.74219 10.9766C8.28906 11.2109 8.875 11.3281 9.5 11.3281C10.1172 11.3281 10.6992 11.2109 11.2461 10.9766C11.793 10.7422 12.2695 10.4219 12.6758 10.0156C13.082 9.60938 13.4062 9.13281 13.6484 8.58594C13.8906 8.03906 14.0078 7.45312 14 6.82812C14 6.21094 13.8828 5.62891 13.6484 5.08203C13.4141 4.53516 13.0938 4.05859 12.6875 3.65234C12.2812 3.24609 11.8008 2.92188 11.2461 2.67969C10.6914 2.4375 10.1094 2.32031 9.5 2.32812C8.875 2.32812 8.29297 2.44531 7.75391 2.67969C7.21484 2.91406 6.73828 3.23438 6.32422 3.64062C5.91016 4.04688 5.58594 4.52734 5.35156 5.08203C5.11719 5.63672 5 6.21875 5 6.82812ZM20.75 9.82812C21.2656 9.82812 21.75 9.92578 22.2031 10.1211C22.6562 10.3164 23.0508 10.5859 23.3867 10.9297C23.7227 11.2734 23.9922 11.6719 24.1953 12.125C24.3984 12.5781 24.5 13.0625 24.5 13.5781C24.5 14.0938 24.4023 14.5781 24.207 15.0312C24.0117 15.4844 23.7422 15.8828 23.3984 16.2266C23.0547 16.5703 22.6562 16.8398 22.2031 17.0352C21.75 17.2305 21.2656 17.3281 20.75 17.3281C20.5703 17.3281 20.3945 17.3164 20.2227 17.293L13.3438 24.1719C13.1328 24.3828 12.8906 24.543 12.6172 24.6523C12.3438 24.7617 12.0547 24.8203 11.75 24.8281C11.4375 24.8281 11.1445 24.7695 10.8711 24.6523C10.5977 24.5352 10.3594 24.375 10.1562 24.1719C9.95312 23.9688 9.79297 23.7305 9.67578 23.457C9.55859 23.1836 9.5 22.8906 9.5 22.5781C9.5 22.2812 9.55469 21.9961 9.66406 21.7227C9.77344 21.4492 9.9375 21.2031 10.1562 20.9844L17.0352 14.1055C17.0117 13.9336 17 13.7578 17 13.5781C17 13.0625 17.0977 12.5781 17.293 12.125C17.4883 11.6719 17.7539 11.2773 18.0898 10.9414C18.4258 10.6055 18.8242 10.3359 19.2852 10.1328C19.7461 9.92969 20.2344 9.82812 20.75 9.82812ZM20.75 15.8281C21.0625 15.8281 21.3555 15.7695 21.6289 15.6523C21.9023 15.5352 22.1406 15.375 22.3438 15.1719C22.5469 14.9688 22.707 14.7305 22.8242 14.457C22.9414 14.1836 23 13.8906 23 13.5781C23 13.2578 22.9258 12.9375 22.7773 12.6172L21.0664 14.3281H20V13.2617L21.7109 11.5508C21.3906 11.4023 21.0703 11.3281 20.75 11.3281C20.4375 11.3281 20.1445 11.3867 19.8711 11.5039C19.5977 11.6211 19.3594 11.7812 19.1562 11.9844C18.9531 12.1875 18.793 12.4258 18.6758 12.6992C18.5586 12.9727 18.5 13.2656 18.5 13.5781C18.5 13.8984 18.5742 14.2188 18.7227 14.5391L11.2227 22.0508C11.0742 22.1992 11 22.375 11 22.5781C11 22.7812 11.0742 22.957 11.2227 23.1055C11.3711 23.2539 11.5469 23.3281 11.75 23.3281C11.9531 23.3281 12.1289 23.2539 12.2773 23.1055L19.7891 15.6055C20.1094 15.7539 20.4297 15.8281 20.75 15.8281Z" fill="#174EA6"/>
</g>
<defs>
<clipPath id="clip0_2617_790">
<rect width="24" height="24" fill="white" transform="translate(0.5 0.828125)"/>
</clipPath>
</defs>
</svg>
