<svg width="25" height="25" viewBox="0 0 25 25" fill="none" xmlns="http://www.w3.org/2000/svg">
<path d="M14.3867 14.3164C13.6992 13.7305 12.9375 13.2812 12.1016 12.9688C11.2656 12.6562 10.3984 12.5 9.5 12.5C8.8125 12.5 8.14844 12.5898 7.50781 12.7695C6.86719 12.9492 6.26953 13.1992 5.71484 13.5195C5.16016 13.8398 4.65625 14.2305 4.20312 14.6914C3.75 15.1523 3.35938 15.6602 3.03125 16.2148C2.70312 16.7695 2.44922 17.3672 2.26953 18.0078C2.08984 18.6484 2 19.3125 2 20H0.5C0.5 19.0625 0.636719 18.1602 0.910156 17.293C1.18359 16.4258 1.57812 15.625 2.09375 14.8906C2.60938 14.1562 3.21875 13.5039 3.92188 12.9336C4.625 12.3633 5.42188 11.9141 6.3125 11.5859C5.42969 11.0078 4.74219 10.2812 4.25 9.40625C3.75781 8.53125 3.50781 7.5625 3.5 6.5C3.5 5.67188 3.65625 4.89453 3.96875 4.16797C4.28125 3.44141 4.70703 2.80469 5.24609 2.25781C5.78516 1.71094 6.42188 1.28125 7.15625 0.96875C7.89062 0.65625 8.67188 0.5 9.5 0.5C10.3281 0.5 11.1055 0.65625 11.832 0.96875C12.5586 1.28125 13.1953 1.70703 13.7422 2.24609C14.2891 2.78516 14.7188 3.42188 15.0312 4.15625C15.3438 4.89062 15.5 5.67188 15.5 6.5C15.5 7.01562 15.4375 7.51953 15.3125 8.01172C15.1875 8.50391 15 8.96875 14.75 9.40625C14.5 9.84375 14.207 10.2461 13.8711 10.6133C13.5352 10.9805 13.1406 11.3047 12.6875 11.5859C13.1953 11.7812 13.6797 12.0195 14.1406 12.3008C14.6016 12.582 15.0352 12.8984 15.4414 13.25L14.3867 14.3164ZM5 6.5C5 7.125 5.11719 7.70703 5.35156 8.24609C5.58594 8.78516 5.90625 9.26172 6.3125 9.67578C6.71875 10.0898 7.19531 10.4141 7.74219 10.6484C8.28906 10.8828 8.875 11 9.5 11C10.1172 11 10.6992 10.8828 11.2461 10.6484C11.793 10.4141 12.2695 10.0938 12.6758 9.6875C13.082 9.28125 13.4062 8.80469 13.6484 8.25781C13.8906 7.71094 14.0078 7.125 14 6.5C14 5.88281 13.8828 5.30078 13.6484 4.75391C13.4141 4.20703 13.0938 3.73047 12.6875 3.32422C12.2812 2.91797 11.8008 2.59375 11.2461 2.35156C10.6914 2.10938 10.1094 1.99219 9.5 2C8.875 2 8.29297 2.11719 7.75391 2.35156C7.21484 2.58594 6.73828 2.90625 6.32422 3.3125C5.91016 3.71875 5.58594 4.19922 5.35156 4.75391C5.11719 5.30859 5 5.89062 5 6.5ZM20.75 9.5C21.2656 9.5 21.75 9.59766 22.2031 9.79297C22.6562 9.98828 23.0508 10.2578 23.3867 10.6016C23.7227 10.9453 23.9922 11.3438 24.1953 11.7969C24.3984 12.25 24.5 12.7344 24.5 13.25C24.5 13.7656 24.4023 14.25 24.207 14.7031C24.0117 15.1562 23.7422 15.5547 23.3984 15.8984C23.0547 16.2422 22.6562 16.5117 22.2031 16.707C21.75 16.9023 21.2656 17 20.75 17C20.5703 17 20.3945 16.9883 20.2227 16.9648L13.3438 23.8438C13.1328 24.0547 12.8906 24.2148 12.6172 24.3242C12.3438 24.4336 12.0547 24.4922 11.75 24.5C11.4375 24.5 11.1445 24.4414 10.8711 24.3242C10.5977 24.207 10.3594 24.0469 10.1562 23.8438C9.95312 23.6406 9.79297 23.4023 9.67578 23.1289C9.55859 22.8555 9.5 22.5625 9.5 22.25C9.5 21.9531 9.55469 21.668 9.66406 21.3945C9.77344 21.1211 9.9375 20.875 10.1562 20.6562L17.0352 13.7773C17.0117 13.6055 17 13.4297 17 13.25C17 12.7344 17.0977 12.25 17.293 11.7969C17.4883 11.3438 17.7539 10.9492 18.0898 10.6133C18.4258 10.2773 18.8242 10.0078 19.2852 9.80469C19.7461 9.60156 20.2344 9.5 20.75 9.5ZM20.75 15.5C21.0625 15.5 21.3555 15.4414 21.6289 15.3242C21.9023 15.207 22.1406 15.0469 22.3438 14.8438C22.5469 14.6406 22.707 14.4023 22.8242 14.1289C22.9414 13.8555 23 13.5625 23 13.25C23 12.9297 22.9258 12.6094 22.7773 12.2891L21.0664 14H20V12.9336L21.7109 11.2227C21.3906 11.0742 21.0703 11 20.75 11C20.4375 11 20.1445 11.0586 19.8711 11.1758C19.5977 11.293 19.3594 11.4531 19.1562 11.6562C18.9531 11.8594 18.793 12.0977 18.6758 12.3711C18.5586 12.6445 18.5 12.9375 18.5 13.25C18.5 13.5703 18.5742 13.8906 18.7227 14.2109L11.2227 21.7227C11.0742 21.8711 11 22.0469 11 22.25C11 22.4531 11.0742 22.6289 11.2227 22.7773C11.3711 22.9258 11.5469 23 11.75 23C11.9531 23 12.1289 22.9258 12.2773 22.7773L19.7891 15.2773C20.1094 15.4258 20.4297 15.5 20.75 15.5Z" fill="#EEF4FE"/>
</svg>
