<svg width="21" height="21" viewBox="0 0 21 21" fill="none" xmlns="http://www.w3.org/2000/svg">
<path d="M10.0625 10.7801C10.2636 10.7801 10.4313 10.7254 10.5656 10.616C10.7 10.5067 10.7671 10.3715 10.7671 10.2105V4.86528C10.7671 4.70351 10.6995 4.56833 10.5642 4.45972C10.4289 4.35112 10.2612 4.29643 10.0611 4.29567C9.86098 4.29491 9.69375 4.3496 9.5594 4.45972C9.42506 4.56984 9.35788 4.70503 9.35788 4.86528V10.2105C9.35788 10.3722 9.42553 10.5074 9.56081 10.616C9.6961 10.7246 9.8638 10.7793 10.0639 10.7801M10.0625 14.1544C10.3087 14.1544 10.5149 14.0872 10.6812 13.9528C10.8465 13.8183 10.9292 13.6516 10.9292 13.4527C10.9292 13.2537 10.846 13.0874 10.6798 12.9537C10.5135 12.82 10.3077 12.7528 10.0625 12.752C9.8173 12.7513 9.61155 12.8185 9.44526 12.9537C9.27897 13.0889 9.19582 13.2552 9.19582 13.4527C9.19582 13.6501 9.27897 13.8168 9.44526 13.9528C9.61155 14.0887 9.8173 14.1559 10.0625 14.1544ZM10.0625 20.3289C9.84172 20.3289 9.62094 20.3001 9.40016 20.2424C9.18032 20.1839 8.97739 20.0889 8.79137 19.9576C7.78892 19.2125 6.77239 18.3828 5.74176 17.4684C4.71208 16.5547 3.77728 15.608 2.93737 14.6283C2.09746 13.6486 1.40787 12.6488 0.868597 11.6288C0.329327 10.6088 0.0606308 9.61313 0.0625098 8.64177C0.0625098 6.23195 1.03301 4.24441 2.97401 2.67913C4.91595 1.1131 7.27878 0.330078 10.0625 0.330078C12.8462 0.330078 15.2091 1.1131 17.151 2.67913C19.092 4.24441 20.0625 6.23195 20.0625 8.64177C20.0625 9.61313 19.7938 10.6054 19.2564 11.6185C18.719 12.6309 18.0341 13.6304 17.2017 14.6169C16.3703 15.6042 15.4397 16.5513 14.41 17.4581C13.3803 18.3649 12.3633 19.1909 11.359 19.9359C11.1796 20.0673 10.9757 20.166 10.7474 20.2321C10.5182 20.2974 10.2894 20.3301 10.0611 20.3301" fill="#F24822"/>
</svg>
