<svg width="24" height="24" viewBox="0 0 24 24" fill="none" xmlns="http://www.w3.org/2000/svg">
<path fill-rule="evenodd" clip-rule="evenodd" d="M6.5 0.5C6.79837 0.5 7.08452 0.618526 7.2955 0.829505C7.50647 1.04048 7.625 1.32663 7.625 1.625V3.5H15.125V1.625C15.125 1.32663 15.2435 1.04048 15.4545 0.829505C15.6655 0.618526 15.9516 0.5 16.25 0.5C16.5484 0.5 16.8345 0.618526 17.0455 0.829505C17.2565 1.04048 17.375 1.32663 17.375 1.625V3.5H20C20.3978 3.5 20.7794 3.65804 21.0607 3.93934C21.342 4.22064 21.5 4.60218 21.5 5V11.375C21.5 11.6734 21.3815 11.9595 21.1705 12.1705C20.9595 12.3815 20.6734 12.5 20.375 12.5C20.0766 12.5 19.7905 12.3815 19.5795 12.1705C19.3685 11.9595 19.25 11.6734 19.25 11.375V10.25H2.75V19.25H11.375C11.6734 19.25 11.9595 19.3685 12.1705 19.5795C12.3815 19.7905 12.5 20.0766 12.5 20.375C12.5 20.6734 12.3815 20.9595 12.1705 21.1705C11.9595 21.3815 11.6734 21.5 11.375 21.5H2C1.60218 21.5 1.22064 21.342 0.93934 21.0607C0.658035 20.7794 0.5 20.3978 0.5 20V5C0.5 4.60218 0.658035 4.22064 0.93934 3.93934C1.22064 3.65804 1.60218 3.5 2 3.5H5.375V1.625C5.375 1.32663 5.49353 1.04048 5.7045 0.829505C5.91548 0.618526 6.20163 0.5 6.5 0.5ZM2.75 8H19.25V5.75H2.75V8ZM15.92 14.33C15.817 14.2195 15.6928 14.1308 15.5548 14.0693C15.4168 14.0078 15.2678 13.9748 15.1168 13.9721C14.9657 13.9694 14.8157 13.9972 14.6756 14.0538C14.5355 14.1104 14.4083 14.1946 14.3014 14.3014C14.1946 14.4083 14.1104 14.5355 14.0538 14.6756C13.9972 14.8157 13.9694 14.9657 13.9721 15.1168C13.9748 15.2678 14.0078 15.4168 14.0693 15.5548C14.1308 15.6928 14.2195 15.817 14.33 15.92L16.91 18.5L14.33 21.08C14.2195 21.183 14.1308 21.3072 14.0693 21.4452C14.0078 21.5832 13.9748 21.7322 13.9721 21.8832C13.9694 22.0343 13.9972 22.1843 14.0538 22.3244C14.1104 22.4645 14.1946 22.5917 14.3014 22.6986C14.4083 22.8054 14.5355 22.8896 14.6756 22.9462C14.8157 23.0028 14.9657 23.0306 15.1168 23.0279C15.2678 23.0252 15.4168 22.9922 15.5548 22.9307C15.6928 22.8692 15.817 22.7805 15.92 22.67L18.5 20.09L21.08 22.67C21.183 22.7805 21.3072 22.8692 21.4452 22.9307C21.5832 22.9922 21.7322 23.0252 21.8832 23.0279C22.0343 23.0306 22.1843 23.0028 22.3244 22.9462C22.4645 22.8896 22.5917 22.8054 22.6986 22.6986C22.8054 22.5917 22.8896 22.4645 22.9462 22.3244C23.0028 22.1843 23.0306 22.0343 23.0279 21.8832C23.0252 21.7322 22.9922 21.5832 22.9307 21.4452C22.8692 21.3072 22.7805 21.183 22.67 21.08L20.09 18.5L22.67 15.92C22.7805 15.817 22.8692 15.6928 22.9307 15.5548C22.9922 15.4168 23.0252 15.2678 23.0279 15.1168C23.0306 14.9657 23.0028 14.8157 22.9462 14.6756C22.8896 14.5355 22.8054 14.4083 22.6986 14.3014C22.5917 14.1946 22.4645 14.1104 22.3244 14.0538C22.1843 13.9972 22.0343 13.9694 21.8832 13.9721C21.7322 13.9748 21.5832 14.0078 21.4452 14.0693C21.3072 14.1308 21.183 14.2195 21.08 14.33L18.5 16.91L15.92 14.33Z" fill="#F24822"/>
</svg>
