<svg width="25" height="25" viewBox="0 0 25 25" fill="none" xmlns="http://www.w3.org/2000/svg">
<path d="M14.4338 13.3966C13.7067 13.3966 13.0952 13.0517 12.5993 12.3619C12.1034 11.6721 11.8554 10.8216 11.8554 9.81022C11.8554 8.79887 12.1034 7.9483 12.5993 7.25852C13.0952 6.56874 13.7067 6.22385 14.4338 6.22385C15.1609 6.22385 15.7725 6.56874 16.2684 7.25852C16.7643 7.9483 17.0122 8.79887 17.0122 9.81022C17.0122 10.8216 16.7643 11.6721 16.2684 12.3619C15.7725 13.0517 15.1609 13.3966 14.4338 13.3966ZM6.45101 19.1222C5.87774 19.1222 5.38741 18.8383 4.98002 18.2705C4.57177 17.7026 4.36764 17.0206 4.36764 16.2244V3.396C4.36764 2.59982 4.57177 1.91841 4.98002 1.35176C5.38827 0.785116 5.87817 0.501195 6.44972 0.5H22.4166C22.9899 0.5 23.4802 0.783323 23.8876 1.34997C24.295 1.91662 24.4991 2.59863 24.5 3.396V16.2244C24.5 17.0206 24.2959 17.702 23.8876 18.2687C23.4802 18.8377 22.9903 19.1222 22.4179 19.1222H6.45101ZM7.74022 17.3291H21.1274C21.1274 16.5257 21.3315 15.8419 21.7398 15.2776C22.1472 14.7134 22.6371 14.4313 23.2095 14.4313V5.18918C22.6336 5.18918 22.1429 4.90586 21.7372 4.33921C21.3307 3.77137 21.1274 3.08936 21.1274 2.29319H7.74022C7.74022 3.09534 7.5361 3.77854 7.12785 4.3428C6.72046 4.90705 6.23055 5.18918 5.65814 5.18918V14.4313C6.23399 14.4313 6.72518 14.7152 7.13171 15.283C7.53739 15.8497 7.74022 16.5329 7.74022 17.3291ZM20.0367 24.5H2.58337C2.0101 24.5 1.51977 24.2167 1.11238 23.65C0.704126 23.0822 0.5 22.4002 0.5 21.604V6.70622C0.5 6.45278 0.561882 6.23999 0.685647 6.06784C0.809411 5.8957 0.962828 5.80962 1.1459 5.80962C1.32896 5.80962 1.48195 5.8957 1.60486 6.06784C1.72776 6.23999 1.78921 6.45278 1.78921 6.70622V21.604C1.78921 21.879 1.87172 22.1318 2.03674 22.3625C2.20262 22.5932 2.38483 22.7086 2.58337 22.7086H20.0367C20.2198 22.7086 20.3728 22.7941 20.4957 22.965C20.6195 23.1372 20.6813 23.3506 20.6813 23.6052C20.6813 23.8598 20.6195 24.0726 20.4957 24.2436C20.3719 24.4145 20.219 24.4988 20.0367 24.5ZM6.45101 17.3291H5.65685V2.29139H6.45101C6.23614 2.29139 6.05006 2.40078 5.89278 2.61955C5.7355 2.83831 5.65685 3.09653 5.65685 3.3942V16.2244C5.65685 16.5233 5.7355 16.7821 5.89278 17.0009C6.05006 17.2197 6.23614 17.3291 6.45101 17.3291Z" fill="white"/>
</svg>
