<svg width="25" height="21" viewBox="0 0 25 21" fill="none" xmlns="http://www.w3.org/2000/svg">
<path d="M14.4338 11.5753C13.7067 11.5753 13.0952 11.2879 12.5993 10.7131C12.1034 10.1382 11.8554 9.42944 11.8554 8.58664C11.8554 7.74385 12.1034 7.03504 12.5993 6.46022C13.0952 5.88541 13.7067 5.598 14.4338 5.598C15.1609 5.598 15.7725 5.88541 16.2684 6.46022C16.7643 7.03504 17.0122 7.74385 17.0122 8.58664C17.0122 9.42944 16.7643 10.1382 16.2684 10.7131C15.7725 11.2879 15.1609 11.5753 14.4338 11.5753ZM6.45101 16.3467C5.87774 16.3467 5.38741 16.1101 4.98002 15.6369C4.57177 15.1637 4.36764 14.5953 4.36764 13.9318V3.24145C4.36764 2.57798 4.57177 2.01013 4.98002 1.53793C5.38827 1.06572 5.87817 0.829121 6.44972 0.828125H22.4166C22.9899 0.828125 23.4802 1.06423 23.8876 1.53643C24.295 2.00864 24.4991 2.57698 24.5 3.24145V13.9318C24.5 14.5953 24.2959 15.1632 23.8876 15.6354C23.4802 16.1096 22.9903 16.3467 22.4179 16.3467H6.45101ZM7.74022 14.8523H21.1274C21.1274 14.1829 21.3315 13.613 21.7398 13.1428C22.1472 12.6726 22.6371 12.4375 23.2095 12.4375V4.73578C22.6336 4.73578 22.1429 4.49967 21.7372 4.02747C21.3307 3.55427 21.1274 2.98593 21.1274 2.32245H7.74022C7.74022 2.99091 7.5361 3.56024 7.12785 4.03046C6.72046 4.50067 6.23055 4.73578 5.65814 4.73578V12.4375C6.23399 12.4375 6.72518 12.6741 7.13171 13.1473C7.53739 13.6195 7.74022 14.1889 7.74022 14.8523ZM20.0367 20.8281H2.58337C2.0101 20.8281 1.51977 20.592 1.11238 20.1198C0.704126 19.6466 0.5 19.0783 0.5 18.4148V5.99997C0.5 5.78878 0.561882 5.61145 0.685647 5.46799C0.809411 5.32454 0.962828 5.25281 1.1459 5.25281C1.32896 5.25281 1.48195 5.32454 1.60486 5.46799C1.72776 5.61145 1.78921 5.78878 1.78921 5.99997V18.4148C1.78921 18.6439 1.87172 18.8546 2.03674 19.0469C2.20262 19.2392 2.38483 19.3353 2.58337 19.3353H20.0367C20.2198 19.3353 20.3728 19.4065 20.4957 19.549C20.6195 19.6924 20.6813 19.8703 20.6813 20.0825C20.6813 20.2947 20.6195 20.472 20.4957 20.6144C20.3719 20.7569 20.219 20.8271 20.0367 20.8281ZM6.45101 14.8523H5.65685V2.32095H6.45101C6.23614 2.32095 6.05006 2.41211 5.89278 2.59441C5.7355 2.77672 5.65685 2.9919 5.65685 3.23996V13.9318C5.65685 14.1809 5.7355 14.3966 5.89278 14.5789C6.05006 14.7612 6.23614 14.8523 6.45101 14.8523Z" fill="#174EA6"/>
</svg>
