<svg width="17" height="18" viewBox="0 0 17 18" fill="none" xmlns="http://www.w3.org/2000/svg">
<path d="M2.5 16H5.5V11C5.5 10.7167 5.596 10.4793 5.788 10.288C5.98 10.0967 6.21733 10.0007 6.5 10H10.5C10.7833 10 11.021 10.096 11.213 10.288C11.405 10.48 11.5007 10.7173 11.5 11V16H14.5V7L8.5 2.5L2.5 7V16ZM0.5 16V7C0.5 6.68333 0.571 6.38333 0.713 6.1C0.855 5.81667 1.05067 5.58333 1.3 5.4L7.3 0.9C7.65 0.633333 8.05 0.5 8.5 0.5C8.95 0.5 9.35 0.633333 9.7 0.9L15.7 5.4C15.95 5.58333 16.146 5.81667 16.288 6.1C16.43 6.38333 16.5007 6.68333 16.5 7V16C16.5 16.55 16.304 17.021 15.912 17.413C15.52 17.805 15.0493 18.0007 14.5 18H10.5C10.2167 18 9.97933 17.904 9.788 17.712C9.59667 17.52 9.50067 17.2827 9.5 17V12H7.5V17C7.5 17.2833 7.404 17.521 7.212 17.713C7.02 17.905 6.78267 18.0007 6.5 18H2.5C1.95 18 1.47933 17.8043 1.088 17.413C0.696666 17.0217 0.500667 16.5507 0.5 16Z" fill="white"/>
</svg>
