<svg width="18" height="17" viewBox="0 0 18 17" fill="none" xmlns="http://www.w3.org/2000/svg">
<path d="M3.6995 0.760193V0.0101929V0.760193ZM14.4132 1.51019C14.8274 1.51019 15.1632 1.17441 15.1632 0.760193C15.1632 0.345979 14.8274 0.0101929 14.4132 0.0101929V1.51019ZM16.5566 2.90305H15.8066H16.5566ZM14.4138 0.010193C13.9996 0.0101929 13.6638 0.345979 13.6638 0.760193C13.6638 1.17441 13.9996 1.51019 14.4138 1.51019V0.010193ZM1.55664 10.403H2.30664H1.55664ZM3.6995 12.5459V13.2959V12.5459ZM16.5566 10.403H15.8066H16.5566ZM14.4138 12.5459V13.2959V12.5459ZM5.84235 12.5459L6.37268 12.0156C6.23203 11.8749 6.04127 11.7959 5.84235 11.7959V12.5459ZM9.05664 15.7602L8.52631 16.2905C8.66696 16.4312 8.85773 16.5102 9.05664 16.5102C9.25555 16.5102 9.44632 16.4312 9.58697 16.2905L9.05664 15.7602ZM12.2709 12.5459V11.7959C12.072 11.7959 11.8812 11.8749 11.7406 12.0156L12.2709 12.5459ZM3.6995 0.760193V1.51019H14.4132V0.760193V0.0101929H3.6995V0.760193ZM16.5566 2.90305H17.3066C17.3066 2.13581 17.0019 1.40001 16.4593 0.857491L15.929 1.38782L15.3987 1.91815C15.6599 2.17936 15.8066 2.53364 15.8066 2.90305H16.5566ZM15.929 1.38782L16.4593 0.857491C15.9168 0.314976 15.181 0.0101932 14.4138 0.010193V0.760193V1.51019C14.7832 1.51019 15.1375 1.65694 15.3987 1.91815L15.929 1.38782ZM1.55664 2.90305H2.30664C2.30664 2.53364 2.45339 2.17936 2.7146 1.91815L2.18427 1.38782L1.65394 0.857491C1.11142 1.40001 0.806641 2.13582 0.806641 2.90305H1.55664ZM2.18427 1.38782L2.7146 1.91815C2.97581 1.65694 3.33009 1.51019 3.6995 1.51019V0.760193V0.0101929C2.93226 0.0101929 2.19645 0.314975 1.65394 0.857491L2.18427 1.38782ZM1.55664 10.403H0.806641C0.806641 10.7829 0.881466 11.1591 1.02685 11.5101L1.71976 11.2231L2.41267 10.9361C2.34267 10.7671 2.30664 10.586 2.30664 10.403H1.55664ZM1.71976 11.2231L1.02685 11.5101C1.17223 11.8611 1.38531 12.18 1.65394 12.4486L2.18427 11.9183L2.7146 11.3879C2.58526 11.2586 2.48266 11.1051 2.41267 10.9361L1.71976 11.2231ZM2.18427 11.9183L1.65394 12.4486C1.92256 12.7172 2.24147 12.9303 2.59245 13.0757L2.87946 12.3828L3.16647 11.6899C2.99749 11.6199 2.84394 11.5173 2.7146 11.3879L2.18427 11.9183ZM2.87946 12.3828L2.59245 13.0757C2.94343 13.2211 3.3196 13.2959 3.6995 13.2959V12.5459V11.7959C3.51658 11.7959 3.33546 11.7599 3.16647 11.6899L2.87946 12.3828ZM16.5566 10.403H15.8066C15.8066 10.7725 15.6599 11.1267 15.3987 11.3879L15.929 11.9183L16.4593 12.4486C17.0019 11.9061 17.3066 11.1703 17.3066 10.403H16.5566ZM15.929 11.9183L15.3987 11.3879C15.1375 11.6492 14.7832 11.7959 14.4138 11.7959V12.5459V13.2959C15.181 13.2959 15.9168 12.9911 16.4593 12.4486L15.929 11.9183ZM1.55664 2.90305H0.806641V10.403H1.55664H2.30664V2.90305H1.55664ZM16.5566 2.90305H15.8066V10.403H16.5566H17.3066V2.90305H16.5566ZM3.6995 12.5459V13.2959H5.84235V12.5459V11.7959H3.6995V12.5459ZM5.84235 12.5459L5.31202 13.0762L8.52631 16.2905L9.05664 15.7602L9.58697 15.2299L6.37268 12.0156L5.84235 12.5459ZM9.05664 15.7602L9.58697 16.2905L12.8013 13.0762L12.2709 12.5459L11.7406 12.0156L8.52631 15.2299L9.05664 15.7602ZM12.2709 12.5459V13.2959H14.4138V12.5459V11.7959H12.2709V12.5459Z" fill="#174EA6"/>
</svg>
