<svg width="20" height="22" viewBox="0 0 20 22" fill="none" xmlns="http://www.w3.org/2000/svg">
<path d="M18 20.3812H15C14.7167 20.3812 14.4793 20.2834 14.288 20.0877C14.0967 19.892 14.0007 19.6502 14 19.3621C13.9993 19.0741 14.0953 18.8322 14.288 18.6366C14.4807 18.4409 14.718 18.3431 15 18.3431H18V8.15248H4V11.2097C4 11.4984 3.904 11.7406 3.712 11.9362C3.52 12.1319 3.28267 12.2294 3 12.2287C2.71734 12.228 2.48 12.1302 2.288 11.9352C2.096 11.7402 2 11.4984 2 11.2097V4.07624C2 3.51576 2.196 3.03612 2.588 2.63733C2.98 2.23854 3.45067 2.0388 4 2.03812H5V1.01906C5 0.730329 5.096 0.488473 5.288 0.293493C5.48 0.0985127 5.71733 0.000682887 6 3.51399e-06C6.28267 -0.000675859 6.52033 0.0971539 6.713 0.293493C6.90567 0.489831 7.00133 0.731688 7 1.01906V2.03812H15V1.01906C15 0.730329 15.096 0.488473 15.288 0.293493C15.48 0.0985127 15.7173 0.000682887 16 3.51399e-06C16.2827 -0.000675859 16.5203 0.0971539 16.713 0.293493C16.9057 0.489831 17.0013 0.731688 17 1.01906V2.03812H18C18.55 2.03812 19.021 2.23786 19.413 2.63733C19.805 3.0368 20.0007 3.51644 20 4.07624V18.3431C20 18.9035 19.8043 19.3835 19.413 19.783C19.0217 20.1825 18.5507 20.3819 18 20.3812ZM8.175 18.3431H1C0.71667 18.3431 0.479337 18.2452 0.288003 18.0496C0.0966701 17.8539 0.000670115 17.6121 3.44827e-06 17.324C-0.000663218 17.036 0.0953368 16.7941 0.288003 16.5984C0.48067 16.4028 0.718003 16.3049 1 16.3049H8.175L6.3 14.3687C6.11667 14.1819 6.021 13.9485 6.013 13.6686C6.005 13.3887 6.10067 13.1465 6.3 12.9421C6.48334 12.7552 6.71667 12.6618 7 12.6618C7.28333 12.6618 7.51667 12.7552 7.7 12.9421L11.3 16.6107C11.5 16.8145 11.6 17.0523 11.6 17.324C11.6 17.5958 11.5 17.8335 11.3 18.0373L7.7 21.706C7.51667 21.8928 7.28767 21.9906 7.013 21.9995C6.73833 22.0083 6.50067 21.9105 6.3 21.706C6.11667 21.5191 6.025 21.2814 6.025 20.9926C6.025 20.7039 6.11667 20.4661 6.3 20.2793L8.175 18.3431ZM4 6.11436H18V4.07624H4V6.11436Z" fill="#174EA6"/>
</svg>
