<svg width="28" height="28" viewBox="0 0 28 28" fill="none" xmlns="http://www.w3.org/2000/svg">
<path d="M20.5465 15.6365C20.5465 15.3354 20.7909 15.091 21.092 15.091H22.1829C22.484 15.091 22.7283 15.3354 22.7283 15.6365C22.7283 15.9375 22.484 16.1819 22.1829 16.1819H21.092C20.7909 16.1819 20.5465 15.9375 20.5465 15.6365ZM21.092 20.5455H22.1829C22.484 20.5455 22.7283 20.3012 22.7283 20.0001C22.7283 19.699 22.484 19.4546 22.1829 19.4546H21.092C20.7909 19.4546 20.5465 19.699 20.5465 20.0001C20.5465 20.3012 20.7909 20.5455 21.092 20.5455ZM16.7283 7.45463H17.8192C18.1203 7.45463 18.3647 7.21027 18.3647 6.90918C18.3647 6.60809 18.1203 6.36373 17.8192 6.36373H16.7283C16.4272 6.36373 16.1829 6.60809 16.1829 6.90918C16.1829 7.21027 16.4272 7.45463 16.7283 7.45463ZM21.092 7.45463H22.1829C22.484 7.45463 22.7283 7.21027 22.7283 6.90918C22.7283 6.60809 22.484 6.36373 22.1829 6.36373H21.092C20.7909 6.36373 20.5465 6.60809 20.5465 6.90918C20.5465 7.21027 20.7909 7.45463 21.092 7.45463ZM21.092 11.8183H22.1829C22.484 11.8183 22.7283 11.5739 22.7283 11.2728C22.7283 10.9717 22.484 10.7274 22.1829 10.7274H21.092C20.7909 10.7274 20.5465 10.9717 20.5465 11.2728C20.5465 11.5739 20.7909 11.8183 21.092 11.8183ZM17.8192 10.7274H16.7283C16.4272 10.7274 16.1829 10.9717 16.1829 11.2728C16.1829 11.5739 16.4272 11.8183 16.7283 11.8183H17.8192C18.1203 11.8183 18.3647 11.5739 18.3647 11.2728C18.3647 10.9717 18.1203 10.7274 17.8192 10.7274ZM22.1829 0.90918H16.7283C14.0218 0.90918 11.8192 3.11173 11.8192 5.81827V9.091C11.8192 9.39209 12.0636 9.63645 12.3647 9.63645C12.6658 9.63645 12.9102 9.39209 12.9102 9.091V5.81827C12.9102 3.71282 14.6229 2.00009 16.7283 2.00009H22.1829C24.2883 2.00009 26.0011 3.71282 26.0011 5.81827V22.1819C26.0011 24.2874 24.2883 26.0001 22.1829 26.0001H18.9102C18.6091 26.0001 18.3647 26.2445 18.3647 26.5455C18.3647 26.8466 18.6091 27.091 18.9102 27.091H22.1829C24.8894 27.091 27.092 24.8885 27.092 22.1819V5.81827C27.092 3.11173 24.8894 0.90918 22.1829 0.90918ZM17.2738 18.1979V22.7274C17.2738 25.1339 15.3167 27.091 12.9102 27.091H5.27379C2.86725 27.091 0.910156 25.1339 0.910156 22.7274V18.1979C0.910156 16.6783 1.59743 15.2688 2.79416 14.3317L6.06688 11.7703C7.84834 10.3772 10.3378 10.3772 12.1171 11.7703L15.3909 14.3317C16.5876 15.2688 17.2749 16.6783 17.2749 18.1979H17.2738ZM16.1829 18.1979C16.1829 17.0165 15.6494 15.9201 14.7167 15.1903L11.444 12.6288C10.7512 12.0877 9.92107 11.8161 9.09197 11.8161C8.26288 11.8161 7.4327 12.0877 6.73888 12.6288L3.46725 15.1903C2.53561 15.9201 2.00107 17.0165 2.00107 18.1979V22.7274C2.00107 24.5317 3.46943 26.0001 5.27379 26.0001H12.9102C14.7145 26.0001 16.1829 24.5317 16.1829 22.7274V18.1979ZM11.8192 18.9092V21.091C11.8192 21.9932 11.0851 22.7274 10.1829 22.7274H8.00107C7.09888 22.7274 6.3647 21.9932 6.3647 21.091V18.9092C6.3647 18.007 7.09888 17.2728 8.00107 17.2728H10.1829C11.0851 17.2728 11.8192 18.007 11.8192 18.9092ZM10.7283 18.9092C10.7283 18.6092 10.4829 18.3637 10.1829 18.3637H8.00107C7.70107 18.3637 7.45561 18.6092 7.45561 18.9092V21.091C7.45561 21.391 7.70107 21.6365 8.00107 21.6365H10.1829C10.4829 21.6365 10.7283 21.391 10.7283 21.091V18.9092Z" fill="#174EA6"/>
</svg>
