<svg width="25" height="25" viewBox="0 0 25 25" fill="none" xmlns="http://www.w3.org/2000/svg">
<path d="M12.433 15.3546C13.8893 15.3546 15.0699 14.2236 15.0699 12.8284C15.0699 11.4333 13.8893 10.3023 12.433 10.3023C10.9766 10.3023 9.79599 11.4333 9.79599 12.8284C9.79599 14.2236 10.9766 15.3546 12.433 15.3546Z" fill="#174EA6"/>
<path d="M3.72963 5.09854L4.05925 4.55037C3.92984 4.47869 3.77884 4.45128 3.63102 4.47262C3.48321 4.49397 3.34735 4.5628 3.24574 4.66783L3.72963 5.09854ZM1.09397 9.47376L0.463734 9.28683C0.419868 9.42351 0.425717 9.5704 0.480326 9.70347C0.534934 9.83655 0.635069 9.94793 0.764349 10.0194L1.09397 9.47376ZM1.09133 16.1819L0.761712 15.635C0.632154 15.7065 0.531828 15.8181 0.477202 15.9514C0.422577 16.0848 0.416898 16.2319 0.461097 16.3688L1.09133 16.1819ZM3.72831 20.5571L3.24442 20.9865C3.34603 21.0916 3.48189 21.1604 3.6297 21.1817C3.77752 21.2031 3.92852 21.1757 4.05793 21.104L3.72831 20.5571ZM9.79335 23.9105H9.1341C9.13403 24.0539 9.18491 24.1931 9.27836 24.3051C9.37182 24.4171 9.50229 24.4953 9.64831 24.5269L9.79335 23.9105ZM15.0686 23.913L15.215 24.5294C15.3608 24.4976 15.4909 24.4193 15.5841 24.3073C15.6773 24.1953 15.728 24.0563 15.7279 23.913H15.0686ZM21.135 20.5583L20.8054 21.1052C20.9348 21.1769 21.0858 21.2043 21.2336 21.183C21.3814 21.1617 21.5172 21.0928 21.6189 20.9878L21.135 20.5583ZM23.7693 16.1806L24.3995 16.3675C24.4434 16.2309 24.4376 16.084 24.383 15.9509C24.3283 15.8178 24.2282 15.7064 24.0989 15.635L23.7693 16.1806ZM23.7719 9.4725L24.1016 10.0194C24.2311 9.94788 24.3315 9.83628 24.3861 9.70294C24.4407 9.56959 24.4464 9.42241 24.4022 9.28557L23.7719 9.4725ZM21.135 5.09601L21.6189 4.66657C21.5172 4.56154 21.3814 4.4927 21.2336 4.47136C21.0858 4.45002 20.9348 4.47743 20.8054 4.54911L21.135 5.09601ZM15.0699 1.74512H15.7292C15.729 1.60211 15.6782 1.46338 15.585 1.35164C15.4919 1.2399 15.3618 1.16176 15.2163 1.13001L15.0699 1.74512ZM9.79599 1.7426L9.64963 1.12622C9.50361 1.15777 9.37313 1.23599 9.27968 1.34801C9.18622 1.46004 9.13535 1.59919 9.13542 1.7426H9.79599ZM1.72421 9.6607C2.21931 8.12136 3.06964 6.70847 4.21219 5.52671L3.24574 4.66783C1.9683 5.98847 1.01748 7.56631 0.463734 9.28683L1.72421 9.6607ZM2.72626 18.1964C2.30697 17.5013 1.97041 16.7632 1.72289 15.9962L0.461097 16.3688C0.738445 17.2257 1.11657 18.0515 1.58577 18.828L2.72626 18.1964ZM4.21351 20.1289C3.64436 19.54 3.14461 18.8918 2.72626 18.1964L1.58577 18.828C2.0531 19.6051 2.60858 20.3283 3.24442 20.9865L4.21351 20.1289ZM14.9236 23.2992C13.284 23.6563 11.5815 23.6554 9.94234 23.2967L9.64831 24.5269C11.4801 24.9281 13.3826 24.9281 15.215 24.5294L14.9236 23.2992ZM23.1417 15.9962C22.6466 17.5355 21.7963 18.9484 20.6537 20.1302L21.6189 20.9878C22.8963 19.6671 23.8484 18.0893 24.4022 16.3688L23.1417 15.9962ZM22.1397 7.46045C22.5668 8.17155 22.9004 8.90918 23.1443 9.6607L24.4022 9.28557C24.1248 8.42861 23.7493 7.60542 23.2802 6.82892L22.1397 7.46045ZM20.6524 5.52798C21.2216 6.1169 21.7213 6.76511 22.1397 7.46045L23.2802 6.82892C22.8128 6.05182 22.256 5.32735 21.6202 4.6691L20.6524 5.52798ZM9.94234 2.3577C11.5819 2.00057 13.2844 2.00143 14.9236 2.36023L15.2163 1.13001C13.3845 0.728778 11.482 0.727483 9.64963 1.12622L9.94234 2.3577ZM10.4552 4.07799V1.74133L9.13542 1.7426L9.13674 4.07799H10.4552ZM6.17015 5.71743L4.05925 4.55037L3.40001 5.64291L5.5109 6.8125L6.17015 5.71743ZM2.87393 14.4679L0.761712 15.635L1.42227 16.7288L3.53317 15.563L2.87393 14.4679ZM3.53317 10.0927L1.42359 8.92686L0.764349 10.0194L2.87393 11.1865L3.53317 10.0927ZM10.4552 23.9105V21.5776H9.13674V23.9105H10.4552ZM5.5109 18.8431L3.40001 20.0102L4.05793 21.104L6.16883 19.9369L5.5109 18.8431ZM21.4659 20.0114L19.355 18.8431L18.6958 19.9382L20.8054 21.1052L21.4659 20.0114ZM15.7279 23.913L15.7292 21.5776H14.4107V23.9143L15.7279 23.913ZM23.4436 8.9256L21.3327 10.0927L21.992 11.1865L24.1016 10.0194L23.4436 8.9256ZM24.0989 15.635L21.992 14.4704L21.3327 15.563L23.4423 16.73L24.0989 15.635ZM15.7292 4.07799V1.74512H14.4107V4.07799H15.7292ZM20.8054 4.54911L18.6958 5.7187L19.355 6.8125L21.4659 5.64418L20.8054 4.54911ZM14.4107 4.07799C14.4107 6.50811 17.1571 8.02756 19.355 6.8125L18.6958 5.7187C18.395 5.88503 18.0539 5.97258 17.7066 5.97252C17.3593 5.97247 17.0182 5.88482 16.7175 5.71839C16.4168 5.55197 16.1672 5.31263 15.9937 5.02444C15.8202 4.73626 15.729 4.41066 15.7292 4.07799H14.4107ZM21.3327 10.0927C19.1348 11.3077 19.1348 14.3479 21.3327 15.563L21.992 14.4704C21.6914 14.3041 21.4417 14.0637 21.2682 13.7757C21.0946 13.4877 21.0032 13.161 21.0032 12.8284C21.0032 12.4959 21.0946 12.1692 21.2682 11.8812C21.4417 11.5932 21.6914 11.3528 21.992 11.1865L21.3327 10.0927ZM19.355 18.8431C17.1571 17.6281 14.4107 19.1462 14.4107 21.5776H15.7292C15.7292 21.2451 15.8206 20.9196 15.9942 20.6316C16.1677 20.3436 16.4174 20.1045 16.7181 19.9382C17.0187 19.7719 17.3598 19.6844 17.7069 19.6844C18.0541 19.6844 18.3951 19.7719 18.6958 19.9382L19.355 18.8431ZM10.4552 21.5776C10.4552 19.1475 7.70882 17.6281 5.5109 18.8431L6.16883 19.9369C6.46957 19.7706 6.81206 19.6843 7.15933 19.6844C7.5066 19.6844 7.84774 19.7721 8.14843 19.9385C8.44912 20.1049 8.69876 20.3443 8.87225 20.6324C9.04574 20.9206 9.13696 21.2475 9.13674 21.5802L10.4552 21.5776ZM3.53317 15.563C5.73109 14.3479 5.73109 11.3077 3.53317 10.0927L2.87393 11.1865C4.19242 11.9153 4.19242 13.7378 2.87393 14.4679L3.53317 15.563ZM9.13674 4.07799C9.1365 4.41045 9.04494 4.73699 8.87126 5.02482C8.69758 5.31265 8.4479 5.55163 8.14728 5.71776C7.84667 5.88389 7.50572 5.97132 7.15867 5.97126C6.81162 5.9712 6.4707 5.88366 6.17015 5.71743L5.5109 6.8125C7.70882 8.02756 10.4552 6.50937 10.4552 4.07799H9.13674Z" fill="#174EA6"/>
</svg>
