<svg width="25" height="25" viewBox="0 0 25 25" fill="none" xmlns="http://www.w3.org/2000/svg">
<path d="M12.433 14.8544C13.8893 14.8544 15.0699 13.7235 15.0699 12.3283C15.0699 10.9332 13.8893 9.80221 12.433 9.80221C10.9766 9.80221 9.79599 10.9332 9.79599 12.3283C9.79599 13.7235 10.9766 14.8544 12.433 14.8544Z" fill="white"/>
<path d="M3.72963 4.59841L4.05925 4.05025C3.92984 3.97857 3.77884 3.95116 3.63102 3.9725C3.48321 3.99384 3.34735 4.06268 3.24574 4.16771L3.72963 4.59841ZM1.09397 8.97364L0.463734 8.78671C0.419868 8.92338 0.425717 9.07028 0.480326 9.20335C0.534934 9.33643 0.635069 9.44781 0.764349 9.51928L1.09397 8.97364ZM1.09133 15.6817L0.761712 15.1348C0.632154 15.2064 0.531828 15.318 0.477202 15.4513C0.422577 15.5846 0.416898 15.7318 0.461097 15.8687L1.09133 15.6817ZM3.72831 20.057L3.24442 20.4864C3.34603 20.5914 3.48189 20.6603 3.6297 20.6816C3.77752 20.703 3.92852 20.6755 4.05793 20.6039L3.72831 20.057ZM9.79335 23.4104H9.1341C9.13403 23.5538 9.18491 23.6929 9.27836 23.805C9.37182 23.917 9.50229 23.9952 9.64831 24.0267L9.79335 23.4104ZM15.0686 23.4129L15.215 24.0293C15.3608 23.9975 15.4909 23.9192 15.5841 23.8072C15.6773 23.6952 15.728 23.5561 15.7279 23.4129H15.0686ZM21.135 20.0582L20.8054 20.6051C20.9348 20.6768 21.0858 20.7042 21.2336 20.6829C21.3814 20.6615 21.5172 20.5927 21.6189 20.4877L21.135 20.0582ZM23.7693 15.6805L24.3995 15.8674C24.4434 15.7307 24.4376 15.5838 24.383 15.4508C24.3283 15.3177 24.2282 15.2063 24.0989 15.1348L23.7693 15.6805ZM23.7719 8.97238L24.1016 9.51928C24.2311 9.44776 24.3315 9.33616 24.3861 9.20281C24.4407 9.06947 24.4464 8.92229 24.4022 8.78545L23.7719 8.97238ZM21.135 4.59589L21.6189 4.16645C21.5172 4.06142 21.3814 3.99258 21.2336 3.97124C21.0858 3.94989 20.9348 3.97731 20.8054 4.04899L21.135 4.59589ZM15.0699 1.245H15.7292C15.729 1.10199 15.6782 0.963261 15.585 0.85152C15.4919 0.739779 15.3618 0.661641 15.2163 0.629892L15.0699 1.245ZM9.79599 1.24247L9.64963 0.626103C9.50361 0.657651 9.37313 0.73587 9.27968 0.847893C9.18622 0.959916 9.13535 1.09907 9.13542 1.24247H9.79599ZM1.72421 9.16057C2.21931 7.62123 3.06964 6.20834 4.21219 5.02659L3.24574 4.16771C1.9683 5.48835 1.01748 7.06618 0.463734 8.78671L1.72421 9.16057ZM2.72626 17.6963C2.30697 17.0011 1.97041 16.2631 1.72289 15.4961L0.461097 15.8687C0.738445 16.7256 1.11657 17.5513 1.58577 18.3278L2.72626 17.6963ZM4.21351 19.6288C3.64436 19.0399 3.14461 18.3916 2.72626 17.6963L1.58577 18.3278C2.0531 19.1049 2.60858 19.8281 3.24442 20.4864L4.21351 19.6288ZM14.9236 22.7991C13.284 23.1562 11.5815 23.1553 9.94234 22.7965L9.64831 24.0267C11.4801 24.428 13.3826 24.428 15.215 24.0293L14.9236 22.7991ZM23.1417 15.4961C22.6466 17.0354 21.7963 18.4483 20.6537 19.63L21.6189 20.4877C22.8963 19.167 23.8484 17.5892 24.4022 15.8687L23.1417 15.4961ZM22.1397 6.96033C22.5668 7.67143 22.9004 8.40906 23.1443 9.16057L24.4022 8.78545C24.1248 7.92849 23.7493 7.1053 23.2802 6.3288L22.1397 6.96033ZM20.6524 5.02785C21.2216 5.61678 21.7213 6.26499 22.1397 6.96033L23.2802 6.3288C22.8128 5.55169 22.256 4.82723 21.6202 4.16898L20.6524 5.02785ZM9.94234 1.85758C11.5819 1.50045 13.2844 1.50131 14.9236 1.86011L15.2163 0.629892C13.3845 0.228656 11.482 0.227361 9.64963 0.626103L9.94234 1.85758ZM10.4552 3.57787V1.24121L9.13542 1.24247L9.13674 3.57787H10.4552ZM6.17015 5.21731L4.05925 4.05025L3.40001 5.14279L5.5109 6.31238L6.17015 5.21731ZM2.87393 13.9678L0.761712 15.1348L1.42227 16.2286L3.53317 15.0628L2.87393 13.9678ZM3.53317 9.59254L1.42359 8.42674L0.764349 9.51928L2.87393 10.6863L3.53317 9.59254ZM10.4552 23.4104V21.0775H9.13674V23.4104H10.4552ZM5.5109 18.343L3.40001 19.5101L4.05793 20.6039L6.16883 19.4368L5.5109 18.343ZM21.4659 19.5113L19.355 18.343L18.6958 19.4381L20.8054 20.6051L21.4659 19.5113ZM15.7279 23.4129L15.7292 21.0775H14.4107V23.4142L15.7279 23.4129ZM23.4436 8.42548L21.3327 9.59254L21.992 10.6863L24.1016 9.51928L23.4436 8.42548ZM24.0989 15.1348L21.992 13.9703L21.3327 15.0628L23.4423 16.2299L24.0989 15.1348ZM15.7292 3.57787V1.245H14.4107V3.57787H15.7292ZM20.8054 4.04899L18.6958 5.21858L19.355 6.31238L21.4659 5.14406L20.8054 4.04899ZM14.4107 3.57787C14.4107 6.00799 17.1571 7.52744 19.355 6.31238L18.6958 5.21858C18.395 5.38491 18.0539 5.47246 17.7066 5.4724C17.3593 5.47235 17.0182 5.3847 16.7175 5.21827C16.4168 5.05184 16.1672 4.8125 15.9937 4.52432C15.8202 4.23614 15.729 3.91054 15.7292 3.57787H14.4107ZM21.3327 9.59254C19.1348 10.8076 19.1348 13.8478 21.3327 15.0628L21.992 13.9703C21.6914 13.804 21.4417 13.5636 21.2682 13.2756C21.0946 12.9876 21.0032 12.6609 21.0032 12.3283C21.0032 11.9958 21.0946 11.6691 21.2682 11.3811C21.4417 11.0931 21.6914 10.8526 21.992 10.6863L21.3327 9.59254ZM19.355 18.343C17.1571 17.1279 14.4107 18.6461 14.4107 21.0775H15.7292C15.7292 20.7449 15.8206 20.4195 15.9942 20.1315C16.1677 19.8435 16.4174 19.6043 16.7181 19.4381C17.0187 19.2718 17.3598 19.1842 17.7069 19.1842C18.0541 19.1842 18.3951 19.2718 18.6958 19.4381L19.355 18.343ZM10.4552 21.0775C10.4552 18.6474 7.70882 17.1279 5.5109 18.343L6.16883 19.4368C6.46957 19.2705 6.81206 19.1842 7.15933 19.1842C7.5066 19.1843 7.84774 19.2719 8.14843 19.4384C8.44912 19.6048 8.69876 19.8441 8.87225 20.1323C9.04574 20.4205 9.13696 20.7474 9.13674 21.08L10.4552 21.0775ZM3.53317 15.0628C5.73109 13.8478 5.73109 10.8076 3.53317 9.59254L2.87393 10.6863C4.19242 11.4151 4.19242 13.2377 2.87393 13.9678L3.53317 15.0628ZM9.13674 3.57787C9.1365 3.91032 9.04494 4.23687 8.87126 4.5247C8.69758 4.81253 8.4479 5.05151 8.14728 5.21764C7.84667 5.38377 7.50572 5.4712 7.15867 5.47114C6.81162 5.47108 6.4707 5.38354 6.17015 5.21731L5.5109 6.31238C7.70882 7.52744 10.4552 6.00925 10.4552 3.57787H9.13674Z" fill="white"/>
</svg>
