<svg width="25" height="24" viewBox="0 0 25 24" fill="none" xmlns="http://www.w3.org/2000/svg">
<path d="M7.5 11C6.90905 11 6.32389 10.8836 5.77792 10.6575C5.23196 10.4313 4.73588 10.0998 4.31802 9.68198C3.90016 9.26412 3.56869 8.76804 3.34254 8.22208C3.1164 7.67611 3 7.09095 3 6.5C3 5.90905 3.1164 5.32389 3.34254 4.77792C3.56869 4.23196 3.90016 3.73588 4.31802 3.31802C4.73588 2.90016 5.23196 2.56869 5.77792 2.34254C6.32389 2.1164 6.90905 2 7.5 2C8.69347 2 9.83807 2.47411 10.682 3.31802C11.5259 4.16193 12 5.30653 12 6.5C12 7.69347 11.5259 8.83807 10.682 9.68198C9.83807 10.5259 8.69347 11 7.5 11ZM18 15C16.9391 15 15.9217 14.5786 15.1716 13.8284C14.4214 13.0783 14 12.0609 14 11C14 9.93913 14.4214 8.92172 15.1716 8.17157C15.9217 7.42143 16.9391 7 18 7C19.0609 7 20.0783 7.42143 20.8284 8.17157C21.5786 8.92172 22 9.93913 22 11C22 12.0609 21.5786 13.0783 20.8284 13.8284C20.0783 14.5786 19.0609 15 18 15ZM18 16C19.1935 16 20.3381 16.4741 21.182 17.318C22.0259 18.1619 22.5 19.3065 22.5 20.5V21H13.5V20.5C13.5 19.3065 13.9741 18.1619 14.818 17.318C15.6619 16.4741 16.8065 16 18 16ZM7.5 12C8.15661 12 8.80679 12.1293 9.41342 12.3806C10.02 12.6319 10.5712 13.0002 11.0355 13.4645C11.4998 13.9288 11.8681 14.48 12.1194 15.0866C12.3707 15.6932 12.5 16.3434 12.5 17V21H2.5V17C2.5 15.6739 3.02678 14.4021 3.96447 13.4645C4.90215 12.5268 6.17392 12 7.5 12Z" fill="#174EA6"/>
</svg>
