<svg width="13" height="18" viewBox="0 0 13 18" fill="none" xmlns="http://www.w3.org/2000/svg">
<path d="M11.5 7.75H10.25V4C10.25 3.00544 9.85491 2.05161 9.15165 1.34835C8.44839 0.645088 7.49456 0.25 6.5 0.25C5.50544 0.25 4.55161 0.645088 3.84835 1.34835C3.14509 2.05161 2.75 3.00544 2.75 4V7.75H1.5C1.16848 7.75 0.850537 7.8817 0.616116 8.11612C0.381696 8.35054 0.25 8.66848 0.25 9V16.5C0.25 16.8315 0.381696 17.1495 0.616116 17.3839C0.850537 17.6183 1.16848 17.75 1.5 17.75H11.5C11.8315 17.75 12.1495 17.6183 12.3839 17.3839C12.6183 17.1495 12.75 16.8315 12.75 16.5V9C12.75 8.66848 12.6183 8.35054 12.3839 8.11612C12.1495 7.8817 11.8315 7.75 11.5 7.75ZM4 4C4 3.33696 4.26339 2.70107 4.73223 2.23223C5.20107 1.76339 5.83696 1.5 6.5 1.5C7.16304 1.5 7.79893 1.76339 8.26777 2.23223C8.73661 2.70107 9 3.33696 9 4V7.75H4V4ZM11.5 16.5H1.5V9H11.5V16.5Z" fill="#174EA6"/>
</svg>
