<svg width="114" height="114" viewBox="0 0 114 114" fill="none" xmlns="http://www.w3.org/2000/svg">
<rect width="114" height="114" rx="57" fill="#EDFFFF"/>
<path d="M91.1663 45.4105V73.229C91.1665 76.0653 90.0814 78.7942 88.1335 80.8558C86.1856 82.9174 83.5226 84.1555 80.6908 84.3161L80.0622 84.3332H33.9372C31.1009 84.3334 28.372 83.2482 26.3104 81.3003C24.2488 79.3524 23.0107 76.6894 22.8501 73.8577L22.833 73.229V45.4105L55.8107 62.6852C56.1775 62.8773 56.5855 62.9777 56.9997 62.9777C57.4138 62.9777 57.8218 62.8773 58.1887 62.6852L91.1663 45.4105ZM33.9372 29.6665H80.0622C82.8146 29.6662 85.469 30.6881 87.5107 32.534C89.5523 34.3799 90.8356 36.9183 91.1117 39.6568L56.9997 57.526L22.8877 39.6568C23.1525 37.0271 24.3468 34.578 26.2557 32.7499C28.1645 30.9218 30.6629 29.8346 33.3017 29.6836L33.9372 29.6665Z" fill="#0D99FF"/>
</svg>
