<svg width="24" height="24" viewBox="0 0 24 24" fill="none" xmlns="http://www.w3.org/2000/svg">
<path fill-rule="evenodd" clip-rule="evenodd" d="M4.90644 11.9765C4.90644 11.1986 5.03557 10.4527 5.2663 9.75317L1.22984 6.6709C0.443131 8.26808 0 10.0679 0 11.9765C0 13.8836 0.442757 15.6821 1.22815 17.2784L5.26237 14.1901C5.03388 13.4938 4.90644 12.7507 4.90644 11.9765Z" fill="#FBBC05"/>
<path fill-rule="evenodd" clip-rule="evenodd" d="M11.9932 4.89952C13.6832 4.89952 15.2096 5.49835 16.409 6.47817L19.8979 2.99413C17.7719 1.1432 15.0461 0 11.9932 0C7.25349 0 3.17998 2.71044 1.22949 6.67092L5.26577 9.75319C6.19582 6.9301 8.84693 4.89952 11.9932 4.89952Z" fill="#EA4335"/>
<path fill-rule="evenodd" clip-rule="evenodd" d="M11.9932 19.0539C8.84712 19.0539 6.19601 17.0233 5.26595 14.2002L1.22949 17.2819C3.17998 21.243 7.2535 23.9534 11.9932 23.9534C14.9185 23.9534 17.7114 22.9146 19.8075 20.9684L15.9761 18.0065C14.8951 18.6875 13.5337 19.0539 11.9932 19.0539Z" fill="#34A853"/>
<path fill-rule="evenodd" clip-rule="evenodd" d="M23.4414 11.9763C23.4414 11.2686 23.3323 10.5064 23.1688 9.79883H11.9932V14.4261H18.4261C18.1044 16.0038 17.229 17.2166 15.9761 18.0059L19.8075 20.9679C22.0093 18.9244 23.4414 15.8801 23.4414 11.9763Z" fill="#4285F4"/>
</svg>
